Coordinates
version=1
nRows=10
nColumns=40
inDegrees=yes

Units are S.I. units (second, meters, Newtons, ...)
Angles are in degrees.

endheader
time	pelvis_tilt	pelvis_list	pelvis_rotation	pelvis_tx	pelvis_ty	pelvis_tz	hip_flexion_r	hip_adduction_r	hip_rotation_r	knee_angle_r	knee_angle_r_beta	ankle_angle_r	subtalar_angle_r	mtp_angle_r	hip_flexion_l	hip_adduction_l	hip_rotation_l	knee_angle_l	knee_angle_l_beta	ankle_angle_l	subtalar_angle_l	mtp_angle_l	lumbar_extension	lumbar_bending	lumbar_rotation	arm_flex_r	arm_add_r	arm_rot_r	elbow_flex_r	pro_sup_r	wrist_flex_r	wrist_dev_r	arm_flex_l	arm_add_l	arm_rot_l	elbow_flex_l	pro_sup_l	wrist_flex_l	wrist_dev_l
     31.63000000	     -2.13629476	     -6.19197090	      4.03330317	      0.94744222	      0.93408890	      0.50035261	      8.86714305	      5.92849369	    -17.73584786	     12.08562328	     12.08562328	      8.38570422	      3.00659132	     -5.13043628	     30.41215843	    -12.58332644	      0.95206501	     63.95538472	     63.95538472	      9.41423875	    -17.75840336	     11.22473608	     -8.61210330	      6.88777881	      4.01334952	     20.03826060	    -16.04558302	     -9.88798576	     58.95709505	     45.51141584	      0.00000000	      0.00000000	      4.18394209	     -7.44685594	     -1.14467953	     28.59953574	     45.32713961	      0.00000000	      0.00000000
     31.64228571	     -2.25209447	     -6.06018123	      4.14463421	      0.94641449	      0.93436259	      0.50062553	      8.15214121	      5.92707493	    -17.85816386	     11.41153430	     11.41153430	      8.59457116	      3.47254299	     -5.21769493	     31.30424266	    -12.36091783	      0.72165306	     61.11079767	     61.11079767	      9.59399194	    -17.92254018	     11.35941604	     -8.53724952	      6.68689912	      3.97896182	     21.93300715	    -16.01736242	    -10.02577290	     60.16817555	     45.48370067	      0.00000000	      0.00000000	      2.81845771	     -7.32992900	     -0.92238096	     27.53765976	     45.27909702	      0.00000000	      0.00000000
     31.65457143	     -2.36258144	     -6.01856007	      4.22777568	      0.94535087	      0.93454950	      0.50091764	      7.45901092	      6.03178242	    -17.94110814	     10.74894542	     10.74894542	      8.74210631	      3.91873679	     -5.30668553	     31.96400087	    -12.18681506	      0.53224818	     57.91870275	     57.91870275	      9.76928561	    -17.96389477	     11.45516274	     -8.55611606	      6.60408587	      3.97489922	     23.85995245	    -16.05115563	    -10.15592103	     61.50664678	     45.45185826	      0.00000000	      0.00000000	      1.45971166	     -7.17295780	     -0.64792107	     26.52961484	     45.22196044	      0.00000000	      0.00000000
     31.66685714	     -2.48739954	     -6.00422164	      4.31997163	      0.94434056	      0.93451437	      0.50115640	      6.76399381	      6.15659203	    -18.13053735	     10.03558510	     10.03558510	      8.76825381	      4.48640854	     -5.82619798	     32.43327454	    -12.02330377	      0.31904346	     54.40208940	     54.40208940	      9.45466537	    -17.99358288	     10.52636654	     -8.53474555	      6.56333164	      4.25709095	     25.39196009	    -16.33735380	    -10.33372191	     63.41962881	     45.40758826	      0.00000000	      0.00000000	      0.43755466	     -7.09899053	      0.98980714	     25.05532495	     44.99723762	      0.00000000	      0.00000000
     31.67914286	     -2.58474948	     -5.93771682	      4.38363682	      0.94333350	      0.93447892	      0.50124366	      6.15627163	      6.20539482	    -18.08544288	      9.55302617	      9.55302617	      9.00484866	      4.67469572	     -5.84810269	     32.70442282	    -11.72163882	      0.14856457	     50.70274756	     50.70274756	      9.58537067	    -17.81887515	     11.02780370	     -8.54037258	      6.46466173	      4.38867767	     27.20677283	    -16.43502149	    -10.51337176	     64.51530505	     45.38607923	      0.00000000	      0.00000000	     -0.88830964	     -6.92229001	      1.18270612	     24.47903294	     44.94821403	      0.00000000	      0.00000000
     31.69142857	     -2.72107150	     -5.92965738	      4.45639229	      0.94230131	      0.93422147	      0.50120631	      5.60826273	      6.29714804	    -18.10631640	      9.08129948	      9.08129948	      9.22136048	      4.94502831	     -5.91189484	     32.91091310	    -11.41171001	      0.08717720	     46.84414922	     46.84414922	      9.68243888	    -17.45117981	     11.46216312	     -8.53001360	      6.44981605	      4.45676937	     28.94134239	    -16.47999004	    -10.65709884	     65.64703662	     45.36162464	      0.00000000	      0.00000000	     -2.17793859	     -6.78406989	      1.38859690	     23.90460622	     44.89561373	      0.00000000	      0.00000000
     31.70371429	     -2.85932248	     -5.91089448	      4.55327700	      0.94131825	      0.93383110	      0.50095023	      5.06086813	      6.36113309	    -18.19631642	      8.61125777	      8.61125777	      9.46436756	      5.26679113	     -6.02128472	     32.99826787	    -11.03746408	      0.05119629	     42.84399957	     42.84399957	      9.72673602	    -16.87723355	     11.76237320	     -8.50388859	      6.42208623	      4.43374375	     30.67008709	    -16.50664898	    -10.78581112	     66.86749615	     45.33389117	      0.00000000	      0.00000000	     -3.46800384	     -6.58256748	      1.64299257	     23.36472471	     44.83293478	      0.00000000	      0.00000000
     31.71600000	     -3.08172556	     -5.93376516	      4.63368023	      0.94027815	      0.93316421	      0.50057835	      4.68340394	      6.43295006	    -18.26924263	      8.27737902	      8.27737902	      9.72930693	      5.50309321	     -6.16203230	     33.12142580	    -10.67760122	      0.06360817	     38.81602449	     38.81602449	      9.81784952	    -15.88976945	     11.96946754	     -8.39115774	      6.43480682	      4.51611430	     32.26679202	    -16.66124469	    -10.91074036	     67.93600357	     45.31060962	      0.00000000	      0.00000000	     -4.64963906	     -6.36722488	      1.84074483	     22.95046348	     44.77909027	      0.00000000	      0.00000000
     31.72828571	     -3.33520925	     -6.06035650	      4.76923062	      0.93918602	      0.93229138	      0.50002366	      4.40682218	      6.59019960	    -18.38687600	      8.04505691	      8.04505691	     10.01931101	      5.62502638	     -6.31984250	     33.29312401	    -10.38295976	      0.14801146	     34.85733437	     34.85733437	      9.85197647	    -14.51689231	     12.18065166	     -8.24836817	      6.62068813	      4.61564299	     33.76605023	    -16.89697327	    -11.04100091	     68.89781947	     45.29056093	      0.00000000	      0.00000000	     -5.75374319	     -6.12040147	      1.98460435	     22.61995395	     44.73415775	      0.00000000	      0.00000000
     31.74057143	     -3.39400211	     -5.97121144	      4.87284419	      0.93840631	      0.93180874	      0.49932780	      3.81298873	      6.53058552	    -18.45634170	      7.70171465	      7.70171465	     10.31014551	      6.01010329	     -6.50221271	     32.98124716	     -9.91084199	      0.02673628	     30.71340842	     30.71340842	      9.71636301	    -12.85982682	     12.02265952	     -8.32210228	      6.50447408	      4.38313417	     35.12432788	    -16.62935665	    -11.03359516	     70.30012431	     45.25065767	      0.00000000	      0.00000000	     -7.04789857	     -6.08251498	      2.22807072	     22.28158869	     44.66789240	      0.00000000	      0.00000000
